#N canvas 942 195 854 631 36;
#X obj 239 25 loadbang;
#X obj 250 133 bng 15 250 50 0 empty empty empty 17 7 0 10 -262144
-1 -1;
#X obj 260 304 readsf~;
#X obj 277 434 lop~;
#X floatatom 480 370 5 0 0 0 - - -;
#X obj 288 569 output~;
#X obj 533 479 wsprobe~;
#X obj 11 210 delay 500;
#X msg 31 370 start;
#X msg 262 195 open speech.wav;
#X obj 480 313 hsl 200 15 0 10000 0 0 empty empty cut-off_frequency
-2 -8 0 10 -262144 -1 -1 0 1;
#X connect 0 0 1 0;
#X connect 1 0 9 0;
#X connect 1 0 7 0;
#X connect 2 0 3 0;
#X connect 2 1 1 0;
#X connect 3 0 5 0;
#X connect 3 0 5 1;
#X connect 3 0 6 0;
#X connect 4 0 3 1;
#X connect 7 0 8 0;
#X connect 8 0 2 0;
#X connect 9 0 2 0;
#X connect 10 0 4 0;
