#N canvas 579 140 949 623 16;
#X floatatom 324 51 5 0 50 0 - - -;
#X obj 442 -166 osc~;
#X obj 158 54 hsl 128 15 0 50 0 0 empty empty speed -2 -8 0 10 -262144
-1 -1 5200 1;
#X obj 157 97 hsl 128 15 0 1 0 0 empty empty depth -2 -8 0 10 -262144
-1 -1 12700 1;
#X obj 597 93 clip~ -1 1;
#X text 447 11 <= RESET;
#X floatatom 323 91 5 0 1 0 - - -;
#X obj 23 -153 inlet;
#X obj 595 -64 *~ 1;
#X msg 632 -128 1;
#X obj 632 -190 sel 0;
#X obj 596 19 *~;
#X obj 424 17 bng 15 250 50 0 empty empty empty 17 7 0 10 -262144 -1
-1;
#X msg 363 -211 0;
#X obj 216 -210 loadbang;
#X obj 256 -169 f \$1;
#X obj 257 -109 f \$2;
#X obj 88 -153 inlet;
#X obj 152 -151 inlet;
#X obj 265 10 vradio 15 1 0 2 empty empty empty 0 -8 0 10 -262144 -1
-1 0;
#X text 296 3 sine;
#X text 295 20 square;
#X msg 688 -130 1000;
#X obj 250 161 outlet;
#X obj 320 160 outlet;
#X obj 166 159 outlet~;
#X obj 683 -41 dac~;
#X obj 619 61 dac~;
#X connect 0 0 1 0;
#X connect 0 0 23 0;
#X connect 1 0 8 0;
#X connect 1 0 26 0;
#X connect 1 0 26 1;
#X connect 2 0 0 0;
#X connect 3 0 6 0;
#X connect 4 0 25 0;
#X connect 6 0 24 0;
#X connect 6 0 11 1;
#X connect 7 0 1 1;
#X connect 8 0 11 0;
#X connect 9 0 8 1;
#X connect 10 0 9 0;
#X connect 10 1 22 0;
#X connect 11 0 4 0;
#X connect 11 0 27 0;
#X connect 11 0 27 1;
#X connect 12 0 13 0;
#X connect 13 0 2 0;
#X connect 13 0 3 0;
#X connect 13 0 15 0;
#X connect 13 0 16 0;
#X connect 14 0 15 0;
#X connect 14 0 16 0;
#X connect 15 0 2 0;
#X connect 16 0 3 0;
#X connect 17 0 2 0;
#X connect 18 0 3 0;
#X connect 19 0 10 0;
#X connect 22 0 8 1;
#X coords 0 -1 1 1 540 120 1 0 0;
